<svg width="24" height="24" viewBox="0 0 24 24" xmlns="http://www.w3.org/2000/svg"><title>icon-md</title><g fill="none" fill-rule="evenodd"><path d="M3 5h18a2 2 0 0 1 2 2v10a2 2 0 0 1-2 2H3a2 2 0 0 1-2-2V7a2 2 0 0 1 2-2z" fill="#8E9098"/><g fill="#FFF"><path d="M4 8h1v8H4zM11.5 8h.5v8h-1V8z"/><path d="M8.558 15H7.442L4.01 8.124 4 8h1.071L8 13.882 10.924 8H12v.106L8.557 15z" fill-rule="nonzero"/></g><path fill="#FFF" d="M13 8h1v8h-1z"/><path d="M13.5 8.5v7H16a3.5 3.5 0 0 0 0-7h-2.5z" stroke="#FFF"/></g></svg>